<?xml version="1.0" standalone="no"?>
<!DOCTYPE svg PUBLIC "-//W3C//DTD SVG 20010904//EN"
 "http://www.w3.org/TR/2001/REC-SVG-20010904/DTD/svg10.dtd">
<svg version="1.0" xmlns="http://www.w3.org/2000/svg"
 width="512.000000pt" height="512.000000pt" viewBox="0 0 512.000000 512.000000"
 preserveAspectRatio="xMidYMid meet">
<metadata>
Created by potrace 1.14, written by Peter Selinger 2001-2017
</metadata>
<g transform="translate(0.000000,512.000000) scale(0.100000,-0.100000)"
fill="#000000" stroke="none">
<path d="M1788 5065 c-2 -2 -25 -6 -53 -10 -27 -4 -59 -8 -70 -10 -116 -16
-173 -64 -313 -261 -24 -35 -82 -148 -82 -162 0 -5 -14 -21 -32 -38 -17 -16
-27 -23 -23 -15 5 9 4 12 -3 7 -7 -4 -12 -14 -12 -22 0 -8 -5 -14 -11 -14 -5
0 -7 6 -3 13 5 8 3 8 -9 -2 -9 -7 -14 -17 -11 -22 3 -5 0 -8 -8 -7 -7 2 -12
-3 -10 -11 2 -11 0 -12 -11 -3 -11 9 -18 7 -35 -11 -12 -13 -19 -27 -15 -31 4
-4 0 -4 -10 0 -11 4 -19 0 -23 -10 -3 -9 -13 -16 -21 -16 -8 0 -11 -5 -8 -11
4 -6 1 -9 -6 -7 -8 1 -14 0 -14 -4 0 -12 -48 -58 -62 -58 -7 0 -13 -8 -13 -17
0 -15 -2 -16 -10 -3 -8 13 -10 12 -10 -3 0 -11 -4 -15 -12 -11 -7 5 -9 2 -5
-9 4 -11 2 -14 -9 -10 -9 3 -14 -1 -14 -12 0 -9 -4 -14 -9 -11 -8 6 -26 -21
-23 -35 1 -4 -6 -6 -16 -5 -9 0 -17 -3 -17 -9 -1 -16 -19 -43 -30 -46 -24 -4
-34 -12 -29 -20 3 -5 0 -9 -6 -9 -6 0 -8 -4 -5 -10 3 -5 -1 -10 -10 -10 -9 0
-13 -4 -10 -10 3 -5 -1 -10 -10 -10 -9 0 -13 -5 -10 -10 3 -6 -1 -13 -10 -16
-9 -4 -14 -13 -11 -20 3 -8 0 -11 -8 -8 -8 3 -20 -8 -29 -28 -9 -18 -29 -47
-45 -65 -16 -17 -32 -38 -35 -47 -4 -9 -11 -16 -18 -16 -6 0 -9 -6 -6 -13 6
-15 -18 -39 -29 -29 -5 4 -2 -2 6 -12 8 -11 10 -17 3 -13 -7 4 -18 -2 -27 -15
-19 -27 -21 -42 -3 -33 6 4 3 0 -7 -9 -10 -8 -22 -13 -27 -11 -4 3 -5 -4 -2
-15 3 -11 0 -20 -6 -20 -6 0 -11 -9 -11 -21 0 -11 -4 -17 -10 -14 -5 3 -10 0
-10 -8 0 -21 -26 -68 -33 -61 -3 4 -4 -6 -1 -21 3 -15 1 -24 -5 -21 -5 3 -14
-1 -20 -8 -9 -10 -9 -16 -1 -21 8 -5 8 -11 -1 -21 -6 -7 -15 -11 -20 -9 -4 3
-6 -4 -4 -15 2 -11 -1 -20 -6 -20 -6 0 -7 -4 -4 -10 3 -5 1 -10 -5 -10 -6 0
-9 -4 -6 -9 8 -12 -4 -42 -14 -36 -5 3 -7 -3 -5 -12 1 -10 -2 -23 -7 -30 -5
-7 -7 -17 -3 -23 3 -5 1 -10 -5 -10 -6 0 -8 -4 -5 -10 3 -5 1 -10 -4 -10 -6 0
-10 -3 -10 -7 4 -22 -2 -33 -13 -27 -10 6 -10 4 0 -8 9 -11 10 -18 2 -23 -6
-3 -8 -11 -5 -16 4 -5 1 -9 -5 -9 -6 0 -8 -5 -4 -11 3 -6 0 -15 -7 -20 -12 -7
-12 -9 0 -9 10 0 11 -3 2 -13 -6 -8 -13 -24 -15 -38 -3 -13 -5 -24 -7 -24 -1
0 -3 -9 -5 -20 -4 -25 -13 -72 -20 -105 -3 -14 -6 -31 -6 -37 -1 -7 -6 -13
-12 -13 -6 0 -5 -4 3 -9 9 -6 10 -11 2 -15 -8 -5 -8 -13 0 -28 8 -15 8 -19 0
-14 -7 5 -11 -4 -11 -23 0 -38 1 -34 -10 -71 -6 -21 -5 -30 3 -30 8 0 8 -3 -1
-9 -17 -11 -17 -21 0 -32 7 -5 8 -9 2 -9 -7 0 -11 -26 -10 -75 0 -41 -3 -75
-8 -75 -5 0 -3 -7 4 -15 10 -12 10 -15 -1 -15 -11 0 -11 -2 1 -10 13 -9 13
-10 0 -10 -13 0 -13 -1 0 -10 13 -9 13 -10 0 -10 -9 0 -11 -3 -5 -8 6 -4 10
-42 10 -84 0 -43 2 -78 5 -78 3 0 5 -15 6 -32 2 -68 8 -103 18 -117 9 -12 8
-13 -2 -7 -12 7 -12 4 -2 -14 6 -12 9 -28 6 -35 -3 -8 0 -17 5 -21 6 -3 9 -15
6 -25 -3 -10 -1 -21 4 -24 5 -4 9 -16 9 -28 0 -37 3 -57 9 -57 6 0 11 -26 14
-67 0 -7 4 -13 8 -13 4 0 7 -8 7 -17 -1 -22 5 -46 13 -53 6 -5 30 -86 31 -107
1 -7 5 -13 10 -13 4 0 8 -9 8 -19 0 -11 5 -23 10 -26 6 -4 8 -10 5 -15 -3 -5
-1 -11 5 -15 6 -4 8 -11 5 -16 -4 -5 -1 -9 4 -9 6 0 11 -9 11 -19 0 -11 5 -23
10 -26 6 -4 8 -11 5 -16 -4 -5 -1 -9 4 -9 6 0 11 -3 10 -7 -2 -16 14 -53 23
-53 5 0 7 -4 4 -9 -3 -5 1 -14 9 -21 8 -7 15 -20 15 -30 0 -10 7 -23 15 -30 8
-7 12 -16 9 -21 -3 -5 0 -9 5 -9 6 0 11 -7 11 -15 0 -8 4 -15 10 -15 5 0 9 -3
8 -7 -3 -13 24 -63 34 -63 4 0 8 -7 8 -15 0 -8 5 -15 11 -15 5 0 8 -4 4 -9 -3
-5 2 -16 11 -25 8 -9 13 -20 9 -26 -3 -6 1 -7 9 -4 12 5 16 -1 16 -21 0 -14 4
-24 9 -20 5 3 12 -4 16 -15 4 -11 11 -18 16 -15 5 3 6 -2 2 -11 -4 -12 -3 -15
5 -10 7 4 12 2 12 -4 0 -6 9 -21 20 -33 17 -18 20 -30 15 -64 -3 -24 -7 -48
-10 -55 -2 -7 -6 -29 -9 -48 -3 -19 -12 -69 -21 -110 -9 -41 -17 -85 -17 -97
0 -13 -4 -21 -8 -18 -12 8 2 -49 16 -66 12 -13 37 -16 143 -15 139 1 161 8
161 54 l0 25 21 -27 c32 -41 75 -58 151 -61 41 -1 74 -7 81 -15 10 -10 9 -11
-2 -5 -9 5 -12 4 -7 -3 3 -6 15 -9 26 -7 12 2 18 0 15 -6 -4 -5 -2 -9 3 -9 5
0 19 -9 32 -20 12 -11 27 -17 31 -14 5 3 9 1 9 -5 0 -6 12 -14 26 -17 20 -5
23 -9 12 -16 -9 -7 -7 -8 10 -5 12 3 20 1 16 -4 -3 -5 2 -9 10 -9 9 0 16 -5
16 -11 0 -5 5 -7 10 -4 6 3 10 1 10 -5 0 -7 5 -10 12 -8 6 2 20 -4 30 -14 10
-10 23 -16 28 -13 6 4 10 1 10 -5 0 -6 5 -8 10 -5 6 3 10 1 10 -5 0 -6 4 -9 9
-5 5 3 16 -2 24 -10 9 -8 22 -15 31 -15 8 0 18 -4 21 -10 3 -5 15 -10 25 -10
10 0 20 -5 22 -10 2 -6 13 -12 26 -13 19 -1 25 -8 24 -27 -2 -24 -15 -96 -18
-102 -3 -5 -1 -8 4 -8 6 0 9 -8 8 -17 0 -9 14 -27 32 -39 33 -23 80 -26 133
-9 10 4 24 3 31 -1 10 -6 145 -9 166 -4 4 1 12 1 17 0 6 -1 35 -2 65 -2 30 -1
75 -7 100 -14 151 -43 331 -43 500 1 26 7 73 13 102 14 9 1 24 8 32 17 15 14
18 14 43 -4 20 -13 41 -18 73 -15 53 4 84 5 125 4 17 0 41 0 55 -1 14 0 42 0
63 -1 48 0 65 20 62 75 -2 49 10 76 33 76 10 0 23 5 30 12 7 7 12 8 12 4 0 -5
7 -3 15 4 8 7 15 10 15 6 0 -4 13 0 30 9 16 8 31 15 32 14 11 -4 58 15 58 24
0 6 3 7 7 4 3 -4 17 0 30 8 13 9 23 13 23 10 0 -3 17 4 37 15 21 11 43 20 50
20 6 0 13 5 15 10 2 6 13 12 26 13 12 0 22 5 22 9 0 8 36 25 54 26 5 0 12 6
17 14 5 7 13 13 19 13 6 0 14 6 19 13 4 7 14 12 22 10 8 -2 13 3 12 10 -2 6 1
12 6 12 5 0 17 3 26 7 15 5 16 3 6 -15 -16 -31 -13 -60 8 -81 18 -18 36 -19
246 -19 l226 0 10 26 c23 60 28 116 13 139 -14 22 -21 23 -139 23 l-124 0 5
33 c12 65 45 114 126 188 138 126 219 212 250 266 16 29 34 55 39 58 4 3 5 13
2 22 -4 9 -2 14 3 11 10 -7 36 17 27 25 -3 3 5 16 18 29 13 13 24 30 24 38 0
8 5 14 12 13 6 -2 15 7 19 20 4 12 14 33 24 47 9 14 16 33 15 42 -2 10 9 27
25 38 18 13 27 26 24 35 -4 8 1 17 9 21 9 3 14 11 11 19 -3 7 2 19 10 27 11
12 12 18 3 28 -9 10 -9 11 1 6 6 -4 12 -2 12 4 0 6 3 9 8 7 4 -3 8 6 8 20 1
13 10 31 20 39 11 9 13 13 7 9 -7 -3 -13 -1 -13 4 0 6 5 11 10 11 6 0 10 9 10
21 0 13 4 18 13 13 9 -6 9 -4 -1 8 -10 13 -10 17 0 20 7 3 13 16 13 29 1 13 6
23 12 22 6 -1 9 10 8 27 -1 17 2 30 7 30 5 0 7 4 3 9 -3 6 3 14 12 20 10 6 13
11 6 11 -7 0 -10 7 -7 15 4 8 11 12 18 8 6 -4 5 1 -3 10 -11 13 -11 17 -1 17
8 0 10 3 7 7 -4 3 -1 13 6 21 10 13 9 14 -3 7 -13 -8 -13 -7 -1 8 7 9 10 17 6
17 -4 0 -2 7 5 15 7 8 9 15 5 15 -4 0 -1 8 6 17 12 15 12 16 -1 8 -13 -8 -13
-6 -1 8 7 9 11 24 7 32 -3 8 -2 15 2 15 4 0 9 8 10 18 5 49 11 87 12 87 2 0 3
18 4 40 1 23 5 45 8 50 3 6 5 25 4 43 0 17 1 32 4 32 3 0 5 24 4 53 0 28 2 57
5 62 9 17 10 35 0 41 -5 3 -5 13 1 24 7 13 6 20 -3 23 -9 3 -9 7 0 19 10 11
10 17 1 26 -7 7 -8 12 -2 12 5 0 9 14 9 30 0 17 -2 30 -5 30 -3 0 -6 28 -7 63
-3 100 -9 166 -16 174 -12 11 -8 25 6 17 9 -6 9 -4 -1 8 -7 9 -14 32 -15 52
-1 20 -4 36 -7 36 -3 0 -6 8 -6 18 -1 24 -12 81 -22 117 -5 17 -7 36 -5 43 3
6 0 12 -6 12 -6 0 -11 14 -11 30 0 17 -4 30 -8 30 -4 0 -9 8 -10 18 -2 21 -7
42 -15 62 -3 8 -8 24 -13 35 -4 11 -9 29 -11 40 -2 10 -7 22 -11 25 -7 5 -14
27 -15 48 0 6 -4 12 -9 12 -4 0 -8 8 -8 19 0 10 -6 24 -14 30 -8 7 -13 21 -11
32 2 12 -2 19 -11 19 -8 0 -14 5 -14 11 0 5 6 7 13 3 6 -4 5 1 -4 12 -25 29
-63 107 -60 123 1 7 -2 10 -8 6 -6 -3 -11 1 -11 9 0 9 -5 16 -12 16 -6 0 -9 3
-5 6 3 4 -1 13 -9 21 -8 8 -12 19 -9 24 4 5 -1 9 -9 9 -9 0 -15 3 -15 8 4 22
-2 42 -11 37 -6 -3 -10 1 -10 9 0 9 -5 16 -12 16 -6 0 -8 3 -5 7 4 3 -1 12
-11 20 -9 8 -11 11 -3 7 9 -5 12 -3 7 4 -4 7 -15 12 -24 12 -15 0 -15 2 -2 10
12 8 12 10 -5 10 -17 0 -17 2 -5 10 13 8 13 10 -2 10 -9 0 -20 9 -23 20 -3 11
-11 20 -17 20 -5 0 -7 7 -4 16 3 8 2 13 -2 11 -4 -3 -18 7 -32 21 -14 13 -19
22 -12 18 6 -4 12 -2 12 3 0 10 -14 15 -33 12 -5 -1 -6 3 -3 8 3 5 -1 11 -9
15 -8 3 -15 11 -15 18 0 8 -9 20 -20 28 -11 8 -20 20 -20 27 0 7 -4 13 -8 13
-11 0 -52 35 -52 44 0 8 -63 71 -70 69 -3 -1 -4 3 -2 8 1 5 -5 9 -13 9 -8 0
-15 7 -15 15 0 8 -3 14 -7 14 -21 -3 -33 2 -31 14 2 6 -3 11 -9 9 -7 -1 -13 5
-13 14 0 8 -4 13 -9 10 -5 -3 -12 1 -15 10 -3 8 -10 13 -15 9 -5 -3 -13 4 -16
16 -4 13 -12 18 -21 15 -8 -3 -13 -2 -10 2 8 14 -19 39 -79 70 -33 18 -55 32
-50 32 6 0 -6 8 -25 17 -19 9 -46 25 -59 35 -13 10 -28 15 -34 11 -6 -4 -8 0
-5 8 4 10 -1 15 -13 16 -10 1 -28 11 -41 22 -12 12 -30 21 -40 21 -10 0 -18 5
-18 11 0 5 -5 7 -11 4 -6 -4 -17 1 -24 11 -8 11 -15 15 -15 11 0 -4 -24 15
-52 43 -74 71 -216 148 -302 164 -15 3 -36 8 -47 11 -12 4 -31 8 -42 10 -12 1
-40 7 -63 13 -22 7 -102 21 -177 32 -75 11 -142 23 -150 26 -7 2 -31 7 -53 9
-21 2 -59 6 -84 9 -25 4 -67 9 -95 12 -49 6 -791 14 -797 9z m-968 -4245 c0
-5 6 -9 13 -7 6 1 11 -4 10 -10 -2 -7 4 -13 12 -13 8 0 15 -7 15 -17 0 -9 3
-14 6 -10 8 8 34 -18 34 -33 0 -6 4 -9 8 -6 5 3 9 -1 9 -9 0 -16 -13 -20 -21
-7 -3 5 -19 8 -36 7 -16 -1 -30 3 -30 8 0 5 -5 5 -13 -1 -23 -19 -40 2 -33 39
4 19 7 42 7 52 0 18 19 25 19 7z"/>
<path d="M959 4383 c-13 -16 -12 -17 4 -4 9 7 17 15 17 17 0 8 -8 3 -21 -13z"/>
<path d="M4695 1360 c-3 -5 -1 -10 4 -10 6 0 11 5 11 10 0 6 -2 10 -4 10 -3 0
-8 -4 -11 -10z"/>
</g>
</svg>
